<svg width="274" height="173" viewBox="0 0 274 173" fill="none" xmlns="http://www.w3.org/2000/svg">
<path fill-rule="evenodd" clip-rule="evenodd" d="M43.5 34C55 38.5 67.7325 40.601 75.9829 43.9002C82.4985 46.5055 111.5 63 93.8989 95.1991C98.19 67 86.296 49.2202 55 47L74.891 109.25C84.6796 134.529 59.1555 142.808 48.3058 138.886C37.0874 134.854 38.4123 110.492 66.858 109.382L43.5 34Z" fill="black"/>
<path d="M182.334 141.912L247.601 54.4612C247.601 54.4612 217.43 73.3483 194.922 64C194.922 64 208.873 64.1982 207.541 48.0626C207 41.5 204 38.5 197.5 35.5C194.922 34.3102 188 32 180.185 36.4624C174.074 39.9517 173.109 47.5 173.827 52.8593C176.027 69.2831 192.809 70.9827 195.846 71.9144C204.385 74.5341 219.395 73.7891 225.416 71.5952L173.547 139.179L182.334 141.912Z" fill="black"/>
<rect x="5" y="5" width="264" height="163" rx="25" stroke="black" stroke-width="10"/>
<path d="M173 86L119.75 118.909V53.091L173 86Z" fill="black"/>
</svg>
