<svg width="274" height="173" viewBox="0 0 274 173" fill="none" xmlns="http://www.w3.org/2000/svg">
<path fill-rule="evenodd" clip-rule="evenodd" d="M41.2814 29.9596C50.0419 37.2655 67.7325 40.601 75.9829 43.9002C82.4985 46.5055 111.565 53.5402 93.8989 95.1991C100.149 63.6766 91.2204 46.2237 53.704 47.0008L74.891 109.25C84.6797 134.529 59.1556 142.808 48.3058 138.886C37.0874 134.854 38.4123 110.492 66.858 109.382L41.2814 29.9596Z" fill="black"/>
<path d="M182.334 141.912L247.601 54.4612C247.601 54.4612 217.488 73.8419 194.98 64.4936C194.98 64.4936 208.209 64.2393 207.541 48.0626C207.482 46.6152 206.993 45.1785 206.495 43.7881C206.069 42.591 205.127 41.4318 204.324 40.4037C202.988 38.7753 201.633 37.478 199.806 36.3601C198.283 35.4286 196.652 34.5453 194.922 34.0933C192.52 33.4583 189.95 33.1891 187.531 33.5615C184.882 33.9408 182.289 34.9722 180.185 36.4624C178.135 37.9285 176.494 39.9535 175.472 42.1855C174.012 45.4524 173.342 49.2369 173.827 52.8593C174.281 55.7538 175.962 59.2279 177.59 61.0806C181.338 65.3725 184.209 66.7975 187.015 68.2845C189.782 69.8855 192.809 70.9827 195.846 71.9144C204.385 74.5341 219.395 73.7891 225.416 71.5952L173.547 139.179L182.334 141.912Z" fill="black"/>
<rect x="5" y="5" width="264" height="163" rx="25" stroke="black" stroke-width="10"/>
<path d="M173 86L119.75 118.909V53.091L173 86Z" fill="black"/>
</svg>
